{
	"asset":{
		"generator":"Khronos glTF Blender I/O v3.6.28",
		"version":"2.0"
	},
	"scene":0,
	"scenes":[
		{
			"name":"Scene",
			"nodes":[
				0,
				1,
				2
			]
		}
	],
	"nodes":[
		{
			"mesh":0,
			"name":"Cube",
			"translation":[
				0.3334786891937256,
				0,
				0
			]
		},
		{
			"mesh":1,
			"name":"Cylinder",
			"rotation":[
				1,
				0,
				0,
				0
			],
			"scale":[
				-0.1834520548582077,
				-0.7745830416679382,
				-0.18385820090770721
			],
			"translation":[
				0.3436620235443115,
				-1.8928769826889038,
				0.03570853918790817
			]
		},
		{
			"mesh":2,
			"name":"Cone",
			"translation":[
				0.32984453439712524,
				-2.4275739192962646,
				0.05849013850092888
			]
		}
	],
	"materials":[
		{
			"doubleSided":true,
			"name":"Material",
			"pbrMetallicRoughness":{
				"baseColorFactor":[
					0.800000011920929,
					0.800000011920929,
					0.800000011920929,
					1
				],
				"metallicFactor":0,
				"roughnessFactor":0.5
			}
		}
	],
	"meshes":[
		{
			"name":"Cube",
			"primitives":[
				{
					"attributes":{
						"POSITION":0,
						"NORMAL":1,
						"TEXCOORD_0":2
					},
					"indices":3,
					"material":0
				}
			]
		},
		{
			"name":"Cylinder",
			"primitives":[
				{
					"attributes":{
						"POSITION":4,
						"NORMAL":5,
						"TEXCOORD_0":6
					},
					"indices":7
				}
			]
		},
		{
			"name":"Cone",
			"primitives":[
				{
					"attributes":{
						"POSITION":8,
						"NORMAL":9,
						"TEXCOORD_0":10
					},
					"indices":11
				}
			]
		}
	],
	"accessors":[
		{
			"bufferView":0,
			"componentType":5126,
			"count":2752,
			"max":[
				1.168276309967041,
				0.9401683211326599,
				1.076433539390564
			],
			"min":[
				-1.184856653213501,
				-1.1654826402664185,
				-1.1615153551101685
			],
			"type":"VEC3"
		},
		{
			"bufferView":1,
			"componentType":5126,
			"count":2752,
			"type":"VEC3"
		},
		{
			"bufferView":2,
			"componentType":5126,
			"count":2752,
			"type":"VEC2"
		},
		{
			"bufferView":3,
			"componentType":5123,
			"count":4128,
			"type":"SCALAR"
		},
		{
			"bufferView":4,
			"componentType":5126,
			"count":192,
			"max":[
				1,
				1,
				1
			],
			"min":[
				-1,
				-1,
				-1
			],
			"type":"VEC3"
		},
		{
			"bufferView":5,
			"componentType":5126,
			"count":192,
			"type":"VEC3"
		},
		{
			"bufferView":6,
			"componentType":5126,
			"count":192,
			"type":"VEC2"
		},
		{
			"bufferView":7,
			"componentType":5123,
			"count":372,
			"type":"SCALAR"
		},
		{
			"bufferView":8,
			"componentType":5126,
			"count":134,
			"max":[
				0.7596084475517273,
				-0.13526135683059692,
				0.7596084475517273
			],
			"min":[
				-0.7596084475517273,
				-0.6215795278549194,
				-0.7596084475517273
			],
			"type":"VEC3"
		},
		{
			"bufferView":9,
			"componentType":5126,
			"count":134,
			"type":"VEC3"
		},
		{
			"bufferView":10,
			"componentType":5126,
			"count":134,
			"type":"VEC2"
		},
		{
			"bufferView":11,
			"componentType":5123,
			"count":204,
			"type":"SCALAR"
		}
	],
	"bufferViews":[
		{
			"buffer":0,
			"byteLength":33024,
			"byteOffset":0,
			"target":34962
		},
		{
			"buffer":0,
			"byteLength":33024,
			"byteOffset":33024,
			"target":34962
		},
		{
			"buffer":0,
			"byteLength":22016,
			"byteOffset":66048,
			"target":34962
		},
		{
			"buffer":0,
			"byteLength":8256,
			"byteOffset":88064,
			"target":34963
		},
		{
			"buffer":0,
			"byteLength":2304,
			"byteOffset":96320,
			"target":34962
		},
		{
			"buffer":0,
			"byteLength":2304,
			"byteOffset":98624,
			"target":34962
		},
		{
			"buffer":0,
			"byteLength":1536,
			"byteOffset":100928,
			"target":34962
		},
		{
			"buffer":0,
			"byteLength":744,
			"byteOffset":102464,
			"target":34963
		},
		{
			"buffer":0,
			"byteLength":1608,
			"byteOffset":103208,
			"target":34962
		},
		{
			"buffer":0,
			"byteLength":1608,
			"byteOffset":104816,
			"target":34962
		},
		{
			"buffer":0,
			"byteLength":1072,
			"byteOffset":106424,
			"target":34962
		},
		{
			"buffer":0,
			"byteLength":408,
			"byteOffset":107496,
			"target":34963
		}
	],
	"buffers":[
		{
			"byteLength":107904,
			"uri":"mychair.bin"
		}
	]
}
